<?xml version="1.0" encoding="UTF-8"?>
<svg width="235px" height="50px" viewBox="0 0 235 50" version="1.1" xmlns="http://www.w3.org/2000/svg" xmlns:xlink="http://www.w3.org/1999/xlink">
    <title>Artboard</title>
    <g id="Artboard" stroke="none" stroke-width="1" fill="none" fill-rule="evenodd">
        <g id="kindred" fill-rule="nonzero">
            <rect id="Rectangle" fill="#E62E83" x="23.6935897" y="0.413675214" width="6.33717949" height="49.3623932"></rect>
            <polygon id="Path" fill="#49B449" points="44.691453 16.3294872 52.2115385 16.3294872 37.4029915 32.0059829 30.4081197 32.0059829"></polygon>
            <polygon id="Path" fill="#863B93" points="30.4081197 32.0059829 37.4029915 32.0059829 53.5799145 49.7752137 45.307265 49.7752137"></polygon>
            <polygon id="Path" fill="#00A5DF" points="9.03247863 16.3294872 1.51239316 16.3294872 16.3209402 32.0059829 23.315812 32.0059829"></polygon>
            <polygon id="Path" fill="#EB8C24" points="16.3209402 32.0059829 0.144017094 49.7752137 8.41666667 49.7752137 23.3153846 32.0059829"></polygon>
            <polygon id="Path" fill="#121617" points="89.5816239 49.7760684 84.742735 49.7760684 79.7286325 40.6239316 76.1517094 44.657265 76.1517094 47.2162393 78.8863248 47.2162393 78.8863248 49.7760684 69.9799145 49.7760684 69.9799145 47.2162393 72.9611111 47.2162393 72.9611111 26.7393162 69.9799145 26.7393162 69.9799145 24.1790598 76.1517094 24.1790598 76.1517094 41.0102564 82.6739316 33.4008547 80.5696581 33.4008547 80.5696581 30.841453 88.8102564 30.841453 88.8102564 33.4008547 86.1799145 33.4008547 81.7965812 38.3094017 86.7059829 47.2162393 89.5816239 47.2162393"></polygon>
            <path d="M106.673504,49.7760684 L97.5213675,49.7760684 L97.5213675,47.217094 L100.57265,47.217094 L100.57265,33.4017094 L97.5213675,33.4017094 L97.5213675,30.8418803 L103.762821,30.8418803 L103.762821,47.217094 L106.673504,47.217094 L106.673504,49.7760684 Z M100.397436,24.6350427 L103.938889,24.6350427 L103.938889,28.2115385 L100.397436,28.2115385 L100.397436,24.6350427 Z" id="Shape" fill="#121617"></path>
            <path d="M135.628632,49.7760684 L126.897436,49.7760684 L126.897436,47.2162393 L129.632479,47.2162393 L129.632479,35.5059829 C129.632479,34.1029915 129.07094,33.5769231 127.177778,33.5769231 C124.37265,33.5769231 122.934615,34.2081197 121.076068,35.4709402 L121.076068,47.2162393 L123.845726,47.2162393 L123.845726,49.7760684 L114.904701,49.7760684 L114.904701,47.2162393 L117.88547,47.2162393 L117.88547,33.4017094 L114.904701,33.4017094 L114.904701,30.8418803 L121.075641,30.8418803 L121.075641,33.4717949 C122.758974,31.824359 124.12735,30.6666667 127.528632,30.6666667 C131.314957,30.6666667 132.823077,32.1739316 132.823077,35.4 L132.823077,47.2162393 L135.628205,47.2162393 L135.628205,49.7760684 L135.628632,49.7760684 Z" id="Path" fill="#121617"></path>
            <path d="M162.37094,49.7760684 L156.340598,49.7760684 L156.340598,47.1119658 C154.692735,48.7594017 153.289316,49.9162393 149.677778,49.9162393 C145.644872,49.9162393 144.137179,48.4089744 144.137179,45.1128205 L144.137179,35.5059829 C144.137179,32.2098291 145.644872,30.7017094 149.677778,30.7017094 C153.289316,30.7017094 154.69188,31.858547 156.340598,33.5059829 L156.340598,26.7393162 L152.904274,26.7393162 L152.904274,24.1786325 L159.531624,24.1786325 L159.531624,47.217094 L162.371795,47.217094 L162.37094,49.7760684 L162.37094,49.7760684 Z M156.340171,35.5051282 C154.480769,34.2431624 153.04359,33.6111111 150.027778,33.6111111 C147.853846,33.6111111 147.327778,34.1367521 147.327778,35.5051282 L147.327778,45.1119658 C147.327778,46.4799145 147.853846,47.0068376 150.027778,47.0068376 C153.04359,47.0068376 154.480769,46.3747863 156.340171,45.1119658 L156.340171,35.5051282 Z" id="Shape" fill="#121617"></path>
            <path d="M183.502991,33.891453 L182.275214,33.891453 C180.031624,33.891453 178.452991,34.6987179 176.73547,35.7512821 L176.73547,47.217094 L180.416667,47.217094 L180.416667,49.7760684 L170.563675,49.7760684 L170.563675,47.217094 L173.544444,47.217094 L173.544444,33.4367521 L170.563675,33.4017094 L170.563675,30.8418803 L176.735043,30.8418803 L176.735043,33.6470085 C178.27735,32.1397436 179.785043,30.8418803 182.555556,30.8418803 L183.502564,30.8418803 L183.502564,33.891453 L183.502991,33.891453 Z" id="Path" fill="#121617"></path>
            <path d="M195.157265,45.182906 C195.157265,46.5149573 195.717949,47.0769231 197.050855,47.0769231 L201.75,47.0769231 C203.117521,47.0769231 203.643162,46.5162393 203.643162,45.182906 L203.643162,43.7816239 L206.833761,43.7816239 L206.833761,45.0777778 C206.833761,48.2696581 205.326923,49.7760684 202.13547,49.7760684 L196.665385,49.7760684 C193.473932,49.7760684 191.967094,48.2696581 191.967094,45.0777778 L191.967094,35.5410256 C191.967094,32.35 193.473932,30.8418803 196.665385,30.8418803 L202.13547,30.8418803 C205.326923,30.8418803 206.833761,32.35 206.833761,35.5410256 L206.833761,41.0807692 L195.15812,41.0807692 L195.157265,45.182906 L195.157265,45.182906 Z M197.050855,33.5410256 C195.718376,33.5410256 195.157265,34.1017094 195.157265,35.4350427 L195.157265,38.6961538 L203.642308,38.6961538 L203.642308,35.4350427 C203.642308,34.1021368 203.117094,33.5410256 201.749145,33.5410256 L197.050855,33.5410256 Z" id="Shape" fill="#121617"></path>
            <path d="M233.997009,49.7760684 L227.965812,49.7760684 L227.965812,47.1119658 C226.318803,48.7594017 224.914957,49.9162393 221.303846,49.9162393 C217.270513,49.9162393 215.763248,48.4089744 215.763248,45.1128205 L215.763248,35.5059829 C215.763248,32.2098291 217.270085,30.7017094 221.303846,30.7017094 C224.914957,30.7017094 226.317949,31.858547 227.965812,33.5059829 L227.965812,26.7393162 L224.529487,26.7393162 L224.529487,24.1786325 L231.157265,24.1786325 L231.157265,47.217094 L233.997436,47.217094 L233.997436,49.7760684 L233.997009,49.7760684 Z M227.965812,35.5051282 C226.106838,34.2431624 224.669658,33.6111111 221.653846,33.6111111 C219.479487,33.6111111 218.953846,34.1367521 218.953846,35.5051282 L218.953846,45.1119658 C218.953846,46.4799145 219.479487,47.0068376 221.653846,47.0068376 C224.669658,47.0068376 226.106838,46.3747863 227.965812,45.1119658 L227.965812,35.5051282 Z" id="Shape" fill="#121617"></path>
        </g>
    </g>
</svg>